# xmcd
#
# Track frame offsets:
#	150
#	19149
#	44859
#	61723
#	113868
#	137506
#	158110
#	180879
#	224137
#	241666
#	259972
#	282966
#	309074
#
# Disc length: 4480 seconds
#
# Revision: 0
# Processed by: cddbd v1.4PL0 Copyright (c) Steve Scherf et al.
# Submitted via: dBpowerAMP V4.0
#
DISCID=b2117e0d
DTITLE=Cadillac Blues Band - Live '96
DYEAR=1996
DGENRE=Blues
TTITLE0=Louisiana Blues
TTITLE1=I'm Crying
TTITLE2=Don't Treat Me Like That
TTITLE3=Change My Life
TTITLE4=Stolen Heart
TTITLE5=Chicken Farm
TTITLE6=Poison Booze In The Bottle
TTITLE7=Good Morning Little Schoolgirl
TTITLE8=Am I Wrong
TTITLE9=I Know A Little
TTITLE10=Foxy Lady
TTITLE11=Stone Free
TTITLE12=Night Time
EXTD=
EXTT0=
EXTT1=
EXTT2=
EXTT3=
EXTT4=
EXTT5=
EXTT6=
EXTT7=
EXTT8=
EXTT9=
EXTT10=
EXTT11=
EXTT12=
PLAYORDER=
